<svg width="32" height="32" viewBox="0 0 32 32" fill="none" xmlns="http://www.w3.org/2000/svg">
<path d="M4.00002 8.00008C3.26669 8.00008 2.66669 8.60008 2.66669 9.33342V26.6667C2.66669 28.1334 3.86669 29.3334 5.33335 29.3334H22.6667C23.4 29.3334 24 28.7334 24 28.0001C24 27.2667 23.4 26.6667 22.6667 26.6667H6.66669C5.93335 26.6667 5.33335 26.0667 5.33335 25.3334V9.33342C5.33335 8.60008 4.73335 8.00008 4.00002 8.00008ZM26.6667 2.66675H10.6667C9.20002 2.66675 8.00002 3.86675 8.00002 5.33341V21.3334C8.00002 22.8001 9.20002 24.0001 10.6667 24.0001H26.6667C28.1334 24.0001 29.3334 22.8001 29.3334 21.3334V5.33341C29.3334 3.86675 28.1334 2.66675 26.6667 2.66675ZM24 14.6667H13.3334C12.6 14.6667 12 14.0667 12 13.3334C12 12.6001 12.6 12.0001 13.3334 12.0001H24C24.7334 12.0001 25.3334 12.6001 25.3334 13.3334C25.3334 14.0667 24.7334 14.6667 24 14.6667ZM18.6667 20.0001H13.3334C12.6 20.0001 12 19.4001 12 18.6667C12 17.9334 12.6 17.3334 13.3334 17.3334H18.6667C19.4 17.3334 20 17.9334 20 18.6667C20 19.4001 19.4 20.0001 18.6667 20.0001ZM24 9.33342H13.3334C12.6 9.33342 12 8.73342 12 8.00008C12 7.26675 12.6 6.66675 13.3334 6.66675H24C24.7334 6.66675 25.3334 7.26675 25.3334 8.00008C25.3334 8.73342 24.7334 9.33342 24 9.33342Z" fill="#444B53"/>
</svg>
