<svg width="32" height="32" viewBox="0 0 32 32" fill="none" xmlns="http://www.w3.org/2000/svg">
<path fill-rule="evenodd" clip-rule="evenodd" d="M17.4933 21.3333C18.4133 21.3333 19.0267 20.4133 18.6933 19.5733L13.0267 5.16C12.7467 4.45333 12.08 4 11.3333 4C10.5867 4 9.92001 4.45333 9.64001 5.16L3.97334 19.5733C3.64 20.4133 4.26667 21.3333 5.17334 21.3333C5.70667 21.3333 6.18667 21 6.38667 20.4933L7.56 17.3333H15.08L16.28 20.5067C16.48 21 16.96 21.3333 17.4933 21.3333ZM8.57334 14.6667L11.3333 7.30667L14.0933 14.6667H8.57334ZM27.8533 16.3867L18 26.24L14.04 22.28C13.52 21.76 12.68 21.76 12.16 22.28C11.64 22.8 11.64 23.64 12.16 24.16L17.0667 29.0667C17.5867 29.5867 18.4267 29.5867 18.9467 29.0667L29.72 18.28C30.24 17.76 30.24 16.92 29.72 16.4C29.2133 15.88 28.36 15.88 27.8533 16.3867Z" fill="#22262A"/>
</svg>
